<mxfile host="Electron" modified="2023-05-01T01:24:13.410Z" agent="Mozilla/5.0 (Macintosh; Intel Mac OS X 10_15_7) AppleWebKit/537.36 (KHTML, like Gecko) draw.io/21.2.1 Chrome/112.0.5615.87 Electron/24.1.2 Safari/537.36" etag="U8YpdfF5-zlbTZ8Y8U-9" version="21.2.1" type="device">
  <diagram name="Page-1" id="dJf88klG3rgcepj3eisg">
    <mxGraphModel dx="2817" dy="1955" grid="0" gridSize="10" guides="1" tooltips="1" connect="1" arrows="1" fold="1" page="0" pageScale="1" pageWidth="1600" pageHeight="900" math="0" shadow="0">
      <root>
        <mxCell id="0" />
        <mxCell id="1" parent="0" />
        <mxCell id="XVzmVM9Yq--Jq-H83V3l-39" value="" style="group" vertex="1" connectable="0" parent="1">
          <mxGeometry x="90" y="-536.5" width="160" height="375" as="geometry" />
        </mxCell>
        <mxCell id="XVzmVM9Yq--Jq-H83V3l-33" value="Produce Message" style="rounded=0;whiteSpace=wrap;html=1;fontSize=16;verticalAlign=top;fillColor=#dae8fc;strokeColor=#6c8ebf;" vertex="1" parent="XVzmVM9Yq--Jq-H83V3l-39">
          <mxGeometry width="160" height="375" as="geometry" />
        </mxCell>
        <mxCell id="XVzmVM9Yq--Jq-H83V3l-7" value="Deserialize Platform Message" style="rounded=0;whiteSpace=wrap;html=1;fontSize=16;fillColor=#f5f5f5;fontColor=#333333;strokeColor=#666666;" vertex="1" parent="XVzmVM9Yq--Jq-H83V3l-39">
          <mxGeometry x="20" y="137" width="120" height="60" as="geometry" />
        </mxCell>
        <mxCell id="XVzmVM9Yq--Jq-H83V3l-8" value="Update Internal State" style="rounded=0;whiteSpace=wrap;html=1;fontSize=16;fillColor=#f5f5f5;fontColor=#333333;strokeColor=#666666;" vertex="1" parent="XVzmVM9Yq--Jq-H83V3l-39">
          <mxGeometry x="20" y="218" width="120" height="60" as="geometry" />
        </mxCell>
        <mxCell id="XVzmVM9Yq--Jq-H83V3l-10" style="edgeStyle=none;curved=1;rounded=0;orthogonalLoop=1;jettySize=auto;html=1;exitX=0.5;exitY=1;exitDx=0;exitDy=0;fontSize=12;startSize=8;endSize=8;" edge="1" parent="XVzmVM9Yq--Jq-H83V3l-39" source="XVzmVM9Yq--Jq-H83V3l-7" target="XVzmVM9Yq--Jq-H83V3l-8">
          <mxGeometry relative="1" as="geometry" />
        </mxCell>
        <mxCell id="XVzmVM9Yq--Jq-H83V3l-9" value="Write Chat Message" style="rounded=0;whiteSpace=wrap;html=1;fontSize=16;fillColor=#f5f5f5;fontColor=#333333;strokeColor=#666666;" vertex="1" parent="XVzmVM9Yq--Jq-H83V3l-39">
          <mxGeometry x="20" y="299" width="120" height="60" as="geometry" />
        </mxCell>
        <mxCell id="XVzmVM9Yq--Jq-H83V3l-11" style="edgeStyle=none;curved=1;rounded=0;orthogonalLoop=1;jettySize=auto;html=1;exitX=0.5;exitY=1;exitDx=0;exitDy=0;fontSize=12;startSize=8;endSize=8;" edge="1" parent="XVzmVM9Yq--Jq-H83V3l-39" source="XVzmVM9Yq--Jq-H83V3l-8" target="XVzmVM9Yq--Jq-H83V3l-9">
          <mxGeometry relative="1" as="geometry" />
        </mxCell>
        <mxCell id="XVzmVM9Yq--Jq-H83V3l-26" style="edgeStyle=none;curved=1;rounded=0;orthogonalLoop=1;jettySize=auto;html=1;exitX=0.5;exitY=1;exitDx=0;exitDy=0;fontSize=12;startSize=8;endSize=8;" edge="1" parent="XVzmVM9Yq--Jq-H83V3l-39" source="XVzmVM9Yq--Jq-H83V3l-25" target="XVzmVM9Yq--Jq-H83V3l-7">
          <mxGeometry relative="1" as="geometry" />
        </mxCell>
        <mxCell id="XVzmVM9Yq--Jq-H83V3l-25" value="Read Platform Message" style="rounded=0;whiteSpace=wrap;html=1;fontSize=16;fillColor=#f5f5f5;fontColor=#333333;strokeColor=#666666;" vertex="1" parent="XVzmVM9Yq--Jq-H83V3l-39">
          <mxGeometry x="20" y="56" width="120" height="60" as="geometry" />
        </mxCell>
        <mxCell id="XVzmVM9Yq--Jq-H83V3l-40" value="" style="group" vertex="1" connectable="0" parent="1">
          <mxGeometry x="562" y="-172" width="160" height="450" as="geometry" />
        </mxCell>
        <mxCell id="XVzmVM9Yq--Jq-H83V3l-34" value="LLM" style="rounded=0;whiteSpace=wrap;html=1;fontSize=16;verticalAlign=top;fillColor=#fff2cc;strokeColor=#d6b656;" vertex="1" parent="XVzmVM9Yq--Jq-H83V3l-40">
          <mxGeometry width="160" height="450" as="geometry" />
        </mxCell>
        <mxCell id="XVzmVM9Yq--Jq-H83V3l-12" value="Read Prompt" style="rounded=0;whiteSpace=wrap;html=1;fontSize=16;fillColor=#f5f5f5;fontColor=#333333;strokeColor=#666666;" vertex="1" parent="XVzmVM9Yq--Jq-H83V3l-40">
          <mxGeometry x="20" y="62" width="120" height="60" as="geometry" />
        </mxCell>
        <mxCell id="XVzmVM9Yq--Jq-H83V3l-13" value="PreProcess Prompt" style="rounded=0;whiteSpace=wrap;html=1;fontSize=16;fillColor=#f5f5f5;fontColor=#333333;strokeColor=#666666;" vertex="1" parent="XVzmVM9Yq--Jq-H83V3l-40">
          <mxGeometry x="20" y="138" width="120" height="60" as="geometry" />
        </mxCell>
        <mxCell id="XVzmVM9Yq--Jq-H83V3l-17" style="edgeStyle=none;curved=1;rounded=0;orthogonalLoop=1;jettySize=auto;html=1;exitX=0.5;exitY=1;exitDx=0;exitDy=0;fontSize=12;startSize=8;endSize=8;" edge="1" parent="XVzmVM9Yq--Jq-H83V3l-40" source="XVzmVM9Yq--Jq-H83V3l-12" target="XVzmVM9Yq--Jq-H83V3l-13">
          <mxGeometry relative="1" as="geometry" />
        </mxCell>
        <mxCell id="XVzmVM9Yq--Jq-H83V3l-14" value="Generate Response" style="rounded=0;whiteSpace=wrap;html=1;fontSize=16;fillColor=#f5f5f5;fontColor=#333333;strokeColor=#666666;" vertex="1" parent="XVzmVM9Yq--Jq-H83V3l-40">
          <mxGeometry x="20" y="214" width="120" height="60" as="geometry" />
        </mxCell>
        <mxCell id="XVzmVM9Yq--Jq-H83V3l-18" style="edgeStyle=none;curved=1;rounded=0;orthogonalLoop=1;jettySize=auto;html=1;exitX=0.5;exitY=1;exitDx=0;exitDy=0;fontSize=12;startSize=8;endSize=8;" edge="1" parent="XVzmVM9Yq--Jq-H83V3l-40" source="XVzmVM9Yq--Jq-H83V3l-13" target="XVzmVM9Yq--Jq-H83V3l-14">
          <mxGeometry relative="1" as="geometry" />
        </mxCell>
        <mxCell id="XVzmVM9Yq--Jq-H83V3l-15" value="PostProcess&lt;br&gt;Response" style="rounded=0;whiteSpace=wrap;html=1;fontSize=16;fillColor=#f5f5f5;fontColor=#333333;strokeColor=#666666;" vertex="1" parent="XVzmVM9Yq--Jq-H83V3l-40">
          <mxGeometry x="20" y="293" width="120" height="60" as="geometry" />
        </mxCell>
        <mxCell id="XVzmVM9Yq--Jq-H83V3l-19" style="edgeStyle=none;curved=1;rounded=0;orthogonalLoop=1;jettySize=auto;html=1;exitX=0.5;exitY=1;exitDx=0;exitDy=0;fontSize=12;startSize=8;endSize=8;" edge="1" parent="XVzmVM9Yq--Jq-H83V3l-40" source="XVzmVM9Yq--Jq-H83V3l-14" target="XVzmVM9Yq--Jq-H83V3l-15">
          <mxGeometry relative="1" as="geometry" />
        </mxCell>
        <mxCell id="XVzmVM9Yq--Jq-H83V3l-16" value="Write Response" style="rounded=0;whiteSpace=wrap;html=1;fontSize=16;fillColor=#f5f5f5;fontColor=#333333;strokeColor=#666666;" vertex="1" parent="XVzmVM9Yq--Jq-H83V3l-40">
          <mxGeometry x="20" y="372" width="120" height="60" as="geometry" />
        </mxCell>
        <mxCell id="XVzmVM9Yq--Jq-H83V3l-20" style="edgeStyle=none;curved=1;rounded=0;orthogonalLoop=1;jettySize=auto;html=1;exitX=0.5;exitY=1;exitDx=0;exitDy=0;fontSize=12;startSize=8;endSize=8;" edge="1" parent="XVzmVM9Yq--Jq-H83V3l-40" source="XVzmVM9Yq--Jq-H83V3l-15" target="XVzmVM9Yq--Jq-H83V3l-16">
          <mxGeometry relative="1" as="geometry" />
        </mxCell>
        <mxCell id="XVzmVM9Yq--Jq-H83V3l-41" value="" style="group" vertex="1" connectable="0" parent="1">
          <mxGeometry x="108" y="283" width="160" height="375" as="geometry" />
        </mxCell>
        <mxCell id="XVzmVM9Yq--Jq-H83V3l-32" value="Consume Message" style="rounded=0;whiteSpace=wrap;html=1;fontSize=16;verticalAlign=top;fillColor=#e1d5e7;strokeColor=#9673a6;" vertex="1" parent="XVzmVM9Yq--Jq-H83V3l-41">
          <mxGeometry width="160" height="375" as="geometry" />
        </mxCell>
        <mxCell id="XVzmVM9Yq--Jq-H83V3l-21" value="Read Chat Message" style="rounded=0;whiteSpace=wrap;html=1;fontSize=16;fillColor=#f5f5f5;fontColor=#333333;strokeColor=#666666;" vertex="1" parent="XVzmVM9Yq--Jq-H83V3l-41">
          <mxGeometry x="20" y="62" width="120" height="60" as="geometry" />
        </mxCell>
        <mxCell id="XVzmVM9Yq--Jq-H83V3l-22" value="Update Internal State" style="rounded=0;whiteSpace=wrap;html=1;fontSize=16;fillColor=#f5f5f5;fontColor=#333333;strokeColor=#666666;" vertex="1" parent="XVzmVM9Yq--Jq-H83V3l-41">
          <mxGeometry x="20" y="145" width="120" height="60" as="geometry" />
        </mxCell>
        <mxCell id="XVzmVM9Yq--Jq-H83V3l-29" style="edgeStyle=none;curved=1;rounded=0;orthogonalLoop=1;jettySize=auto;html=1;exitX=0.5;exitY=1;exitDx=0;exitDy=0;fontSize=12;startSize=8;endSize=8;" edge="1" parent="XVzmVM9Yq--Jq-H83V3l-41" source="XVzmVM9Yq--Jq-H83V3l-21" target="XVzmVM9Yq--Jq-H83V3l-22">
          <mxGeometry relative="1" as="geometry" />
        </mxCell>
        <mxCell id="XVzmVM9Yq--Jq-H83V3l-27" value="Serialize Platform Message" style="rounded=0;whiteSpace=wrap;html=1;fontSize=16;fillColor=#f5f5f5;fontColor=#333333;strokeColor=#666666;" vertex="1" parent="XVzmVM9Yq--Jq-H83V3l-41">
          <mxGeometry x="20" y="223" width="120" height="60" as="geometry" />
        </mxCell>
        <mxCell id="XVzmVM9Yq--Jq-H83V3l-30" style="edgeStyle=none;curved=1;rounded=0;orthogonalLoop=1;jettySize=auto;html=1;exitX=0.5;exitY=1;exitDx=0;exitDy=0;fontSize=12;startSize=8;endSize=8;" edge="1" parent="XVzmVM9Yq--Jq-H83V3l-41" source="XVzmVM9Yq--Jq-H83V3l-22" target="XVzmVM9Yq--Jq-H83V3l-27">
          <mxGeometry relative="1" as="geometry" />
        </mxCell>
        <mxCell id="XVzmVM9Yq--Jq-H83V3l-28" value="Write Platform Message" style="rounded=0;whiteSpace=wrap;html=1;fontSize=16;fillColor=#f5f5f5;fontColor=#333333;strokeColor=#666666;" vertex="1" parent="XVzmVM9Yq--Jq-H83V3l-41">
          <mxGeometry x="20" y="301" width="120" height="60" as="geometry" />
        </mxCell>
        <mxCell id="XVzmVM9Yq--Jq-H83V3l-31" style="edgeStyle=none;curved=1;rounded=0;orthogonalLoop=1;jettySize=auto;html=1;exitX=0.5;exitY=1;exitDx=0;exitDy=0;fontSize=12;startSize=8;endSize=8;" edge="1" parent="XVzmVM9Yq--Jq-H83V3l-41" source="XVzmVM9Yq--Jq-H83V3l-27" target="XVzmVM9Yq--Jq-H83V3l-28">
          <mxGeometry relative="1" as="geometry" />
        </mxCell>
        <mxCell id="XVzmVM9Yq--Jq-H83V3l-47" value="AsyncQueue&lt;br&gt;(...)" style="rounded=0;whiteSpace=wrap;html=1;fontSize=16;fillColor=#f5f5f5;strokeColor=#666666;fontColor=#333333;" vertex="1" parent="1">
          <mxGeometry x="309" y="-110" width="120" height="60" as="geometry" />
        </mxCell>
        <mxCell id="XVzmVM9Yq--Jq-H83V3l-49" value="AsyncQueue&lt;br&gt;(...)" style="rounded=0;whiteSpace=wrap;html=1;fontSize=16;fillColor=#f5f5f5;strokeColor=#666666;fontColor=#333333;" vertex="1" parent="1">
          <mxGeometry x="309" y="200" width="120" height="60" as="geometry" />
        </mxCell>
        <mxCell id="XVzmVM9Yq--Jq-H83V3l-50" value="" style="endArrow=none;dashed=1;html=1;strokeWidth=2;rounded=0;fontSize=12;startSize=8;endSize=8;curved=1;endFill=0;startArrow=classic;startFill=1;" edge="1" parent="1" source="XVzmVM9Yq--Jq-H83V3l-12" target="XVzmVM9Yq--Jq-H83V3l-47">
          <mxGeometry width="50" height="50" relative="1" as="geometry">
            <mxPoint x="217" y="63" as="sourcePoint" />
            <mxPoint x="182" y="73" as="targetPoint" />
          </mxGeometry>
        </mxCell>
        <mxCell id="XVzmVM9Yq--Jq-H83V3l-51" value="" style="endArrow=none;dashed=1;html=1;strokeWidth=2;rounded=0;fontSize=12;startSize=8;endSize=8;curved=1;endFill=0;startArrow=classic;startFill=1;" edge="1" parent="1" source="XVzmVM9Yq--Jq-H83V3l-47" target="XVzmVM9Yq--Jq-H83V3l-9">
          <mxGeometry width="50" height="50" relative="1" as="geometry">
            <mxPoint x="332" y="153" as="sourcePoint" />
            <mxPoint x="427" y="-198" as="targetPoint" />
          </mxGeometry>
        </mxCell>
        <mxCell id="XVzmVM9Yq--Jq-H83V3l-52" value="" style="endArrow=none;dashed=1;html=1;strokeWidth=2;rounded=0;fontSize=12;startSize=8;endSize=8;curved=1;endFill=0;startArrow=classic;startFill=1;" edge="1" parent="1" source="XVzmVM9Yq--Jq-H83V3l-49" target="XVzmVM9Yq--Jq-H83V3l-16">
          <mxGeometry width="50" height="50" relative="1" as="geometry">
            <mxPoint x="132" y="123" as="sourcePoint" />
            <mxPoint x="182" y="73" as="targetPoint" />
          </mxGeometry>
        </mxCell>
        <mxCell id="XVzmVM9Yq--Jq-H83V3l-53" value="" style="endArrow=none;dashed=1;html=1;strokeWidth=2;rounded=0;fontSize=12;startSize=8;endSize=8;curved=1;endFill=0;startArrow=classic;startFill=1;" edge="1" parent="1" source="XVzmVM9Yq--Jq-H83V3l-21" target="XVzmVM9Yq--Jq-H83V3l-49">
          <mxGeometry width="50" height="50" relative="1" as="geometry">
            <mxPoint x="400" y="415" as="sourcePoint" />
            <mxPoint x="545" y="363" as="targetPoint" />
          </mxGeometry>
        </mxCell>
        <mxCell id="XVzmVM9Yq--Jq-H83V3l-56" value="" style="group" vertex="1" connectable="0" parent="1">
          <mxGeometry x="-274" y="-112" width="193" height="395" as="geometry" />
        </mxCell>
        <mxCell id="XVzmVM9Yq--Jq-H83V3l-48" value="Conversation&lt;br&gt;Namespace" style="rounded=0;whiteSpace=wrap;html=1;fontSize=16;fillColor=#f5f5f5;fontColor=#333333;strokeColor=#666666;verticalAlign=top;" vertex="1" parent="XVzmVM9Yq--Jq-H83V3l-56">
          <mxGeometry width="193" height="395" as="geometry" />
        </mxCell>
        <mxCell id="XVzmVM9Yq--Jq-H83V3l-43" value="" style="group" vertex="1" connectable="0" parent="XVzmVM9Yq--Jq-H83V3l-56">
          <mxGeometry x="36.5" y="105" width="120" height="252" as="geometry" />
        </mxCell>
        <mxCell id="XVzmVM9Yq--Jq-H83V3l-2" value="Produce&lt;br&gt;Message" style="rounded=0;whiteSpace=wrap;html=1;fontSize=16;fillColor=#dae8fc;strokeColor=#6c8ebf;" vertex="1" parent="XVzmVM9Yq--Jq-H83V3l-43">
          <mxGeometry width="120" height="60" as="geometry" />
        </mxCell>
        <mxCell id="XVzmVM9Yq--Jq-H83V3l-3" value="Consume&lt;br&gt;Message" style="rounded=0;whiteSpace=wrap;html=1;fontSize=16;fillColor=#e1d5e7;strokeColor=#9673a6;" vertex="1" parent="XVzmVM9Yq--Jq-H83V3l-43">
          <mxGeometry y="167" width="120" height="60" as="geometry" />
        </mxCell>
        <mxCell id="XVzmVM9Yq--Jq-H83V3l-6" style="edgeStyle=none;curved=1;rounded=0;orthogonalLoop=1;jettySize=auto;html=1;exitX=0.5;exitY=1;exitDx=0;exitDy=0;entryX=0.5;entryY=0;entryDx=0;entryDy=0;fontSize=12;startSize=8;endSize=8;" edge="1" parent="XVzmVM9Yq--Jq-H83V3l-43" source="XVzmVM9Yq--Jq-H83V3l-4" target="XVzmVM9Yq--Jq-H83V3l-3">
          <mxGeometry relative="1" as="geometry" />
        </mxCell>
        <mxCell id="XVzmVM9Yq--Jq-H83V3l-4" value="LLM" style="rounded=0;whiteSpace=wrap;html=1;fontSize=16;fillColor=#fff2cc;strokeColor=#d6b656;" vertex="1" parent="XVzmVM9Yq--Jq-H83V3l-43">
          <mxGeometry y="84" width="120" height="60" as="geometry" />
        </mxCell>
        <mxCell id="XVzmVM9Yq--Jq-H83V3l-5" style="edgeStyle=none;curved=1;rounded=0;orthogonalLoop=1;jettySize=auto;html=1;exitX=0.5;exitY=1;exitDx=0;exitDy=0;fontSize=12;startSize=8;endSize=8;" edge="1" parent="XVzmVM9Yq--Jq-H83V3l-43" source="XVzmVM9Yq--Jq-H83V3l-2" target="XVzmVM9Yq--Jq-H83V3l-4">
          <mxGeometry relative="1" as="geometry" />
        </mxCell>
        <mxCell id="XVzmVM9Yq--Jq-H83V3l-35" value="" style="endArrow=none;dashed=1;html=1;dashPattern=1 3;strokeWidth=4;rounded=0;fontSize=12;startSize=8;endSize=8;curved=1;fillColor=#dae8fc;strokeColor=#6c8ebf;" edge="1" parent="1" source="XVzmVM9Yq--Jq-H83V3l-2" target="XVzmVM9Yq--Jq-H83V3l-33">
          <mxGeometry width="50" height="50" relative="1" as="geometry">
            <mxPoint x="265" y="-110" as="sourcePoint" />
            <mxPoint x="315" y="-160" as="targetPoint" />
          </mxGeometry>
        </mxCell>
        <mxCell id="XVzmVM9Yq--Jq-H83V3l-36" value="" style="endArrow=none;dashed=1;html=1;dashPattern=1 3;strokeWidth=4;rounded=0;fontSize=12;startSize=8;endSize=8;curved=1;fillColor=#fff2cc;strokeColor=#d6b656;" edge="1" parent="1" source="XVzmVM9Yq--Jq-H83V3l-4" target="XVzmVM9Yq--Jq-H83V3l-34">
          <mxGeometry width="50" height="50" relative="1" as="geometry">
            <mxPoint x="107" y="9" as="sourcePoint" />
            <mxPoint x="252" y="-71" as="targetPoint" />
          </mxGeometry>
        </mxCell>
        <mxCell id="XVzmVM9Yq--Jq-H83V3l-38" value="" style="endArrow=none;dashed=1;html=1;dashPattern=1 3;strokeWidth=4;rounded=0;fontSize=12;startSize=8;endSize=8;curved=1;fillColor=#e1d5e7;strokeColor=#9673a6;" edge="1" parent="1" source="XVzmVM9Yq--Jq-H83V3l-3" target="XVzmVM9Yq--Jq-H83V3l-32">
          <mxGeometry width="50" height="50" relative="1" as="geometry">
            <mxPoint x="112" y="138" as="sourcePoint" />
            <mxPoint x="510" y="156" as="targetPoint" />
          </mxGeometry>
        </mxCell>
        <mxCell id="XVzmVM9Yq--Jq-H83V3l-62" value="Message&lt;br&gt;Context&lt;br&gt;(ie. Speaker, Response, Timestamps, Thoughts, etc.., etc...)" style="shape=cylinder3;whiteSpace=wrap;html=1;boundedLbl=1;backgroundOutline=1;size=15;fontSize=16;aspect=fixed;verticalAlign=top;fillColor=#d5e8d4;strokeColor=#82b366;" vertex="1" parent="1">
          <mxGeometry x="-850" y="-280" width="187.5" height="250" as="geometry" />
        </mxCell>
        <mxCell id="XVzmVM9Yq--Jq-H83V3l-81" value="" style="endArrow=oval;dashed=1;html=1;rounded=0;fontSize=12;startSize=8;endSize=8;curved=1;fillColor=#d5e8d4;strokeColor=#82b366;strokeWidth=4;startArrow=oval;startFill=0;endFill=0;" edge="1" parent="1" source="XVzmVM9Yq--Jq-H83V3l-62" target="XVzmVM9Yq--Jq-H83V3l-48">
          <mxGeometry width="50" height="50" relative="1" as="geometry">
            <mxPoint x="319" y="88" as="sourcePoint" />
            <mxPoint x="564" y="240" as="targetPoint" />
            <Array as="points">
              <mxPoint x="-462" y="63" />
            </Array>
          </mxGeometry>
        </mxCell>
        <mxCell id="XVzmVM9Yq--Jq-H83V3l-82" value="Bot External Context&lt;br&gt;(ie. Conversation History, Threads, Speakers, Etc...)" style="shape=cylinder3;whiteSpace=wrap;html=1;boundedLbl=1;backgroundOutline=1;size=15;fontSize=16;aspect=fixed;verticalAlign=top;fillColor=#d5e8d4;strokeColor=#82b366;" vertex="1" parent="1">
          <mxGeometry x="-525" y="-474" width="187.5" height="250" as="geometry" />
        </mxCell>
        <mxCell id="XVzmVM9Yq--Jq-H83V3l-83" value="Bot&lt;br&gt;Internal Context&lt;br&gt;(ie. Thoughts, ST-Memory, LT-Memory, Ideas¿, ...¿ )" style="shape=cylinder3;whiteSpace=wrap;html=1;boundedLbl=1;backgroundOutline=1;size=15;fontSize=16;aspect=fixed;verticalAlign=top;fillColor=#d5e8d4;strokeColor=#82b366;" vertex="1" parent="1">
          <mxGeometry x="-612.5" y="306" width="187.5" height="250" as="geometry" />
        </mxCell>
        <mxCell id="XVzmVM9Yq--Jq-H83V3l-85" value="" style="endArrow=oval;dashed=1;html=1;rounded=0;fontSize=12;startSize=8;endSize=8;curved=1;fillColor=#d5e8d4;strokeColor=#82b366;strokeWidth=4;startArrow=oval;startFill=0;endFill=0;" edge="1" parent="1" source="XVzmVM9Yq--Jq-H83V3l-48" target="XVzmVM9Yq--Jq-H83V3l-83">
          <mxGeometry width="50" height="50" relative="1" as="geometry">
            <mxPoint x="-393" y="-44" as="sourcePoint" />
            <mxPoint x="-404" y="292" as="targetPoint" />
            <Array as="points">
              <mxPoint x="-422" y="149" />
            </Array>
          </mxGeometry>
        </mxCell>
        <mxCell id="XVzmVM9Yq--Jq-H83V3l-86" value="" style="endArrow=oval;dashed=1;html=1;rounded=0;fontSize=12;startSize=8;endSize=8;curved=1;fillColor=#d5e8d4;strokeColor=#82b366;strokeWidth=4;startArrow=oval;startFill=0;endFill=0;" edge="1" parent="1" source="XVzmVM9Yq--Jq-H83V3l-48" target="XVzmVM9Yq--Jq-H83V3l-82">
          <mxGeometry width="50" height="50" relative="1" as="geometry">
            <mxPoint x="-183" y="293" as="sourcePoint" />
            <mxPoint x="-379" y="493" as="targetPoint" />
            <Array as="points">
              <mxPoint x="-431" y="-43" />
            </Array>
          </mxGeometry>
        </mxCell>
        <mxCell id="XVzmVM9Yq--Jq-H83V3l-88" value="" style="endArrow=none;dashed=1;html=1;rounded=0;fontSize=12;curved=1;fillColor=#d5e8d4;strokeColor=#82b366;shape=link;strokeWidth=3;dashPattern=1 1;" edge="1" parent="1" source="XVzmVM9Yq--Jq-H83V3l-82" target="XVzmVM9Yq--Jq-H83V3l-62">
          <mxGeometry width="50" height="50" relative="1" as="geometry">
            <mxPoint x="-35" y="130" as="sourcePoint" />
            <mxPoint x="15" y="80" as="targetPoint" />
          </mxGeometry>
        </mxCell>
        <mxCell id="XVzmVM9Yq--Jq-H83V3l-89" value="" style="endArrow=none;dashed=1;html=1;rounded=0;fontSize=12;curved=1;fillColor=#d5e8d4;strokeColor=#82b366;shape=link;strokeWidth=3;dashPattern=1 1;" edge="1" parent="1" source="XVzmVM9Yq--Jq-H83V3l-83" target="XVzmVM9Yq--Jq-H83V3l-62">
          <mxGeometry width="50" height="50" relative="1" as="geometry">
            <mxPoint x="-328" y="-287" as="sourcePoint" />
            <mxPoint x="244" y="33" as="targetPoint" />
          </mxGeometry>
        </mxCell>
        <mxCell id="dUiM7AykGVia5DNQ20UD-1" value="&lt;font style=&quot;font-size: 48px;&quot;&gt;Assistant Bot&lt;/font&gt;" style="text;html=1;strokeColor=none;fillColor=none;align=center;verticalAlign=middle;whiteSpace=wrap;rounded=0;fontSize=16;" vertex="1" parent="1">
          <mxGeometry x="-277" y="-288" width="288" height="67" as="geometry" />
        </mxCell>
      </root>
    </mxGraphModel>
  </diagram>
</mxfile>
